<svg xmlns="http://www.w3.org/2000/svg" viewBox="0 0 1920 1080">
  <defs>
    <style>
      .cls-1 {
        fill: #231f20;
      }
    </style>
  </defs>
  <title>ecxblack</title>
  <g id="Layer_1" data-name="Layer 1">
    <path class="cls-1" d="M589.63,801.65v114H141.76V190.44H589.63v114H255.76V494.13H525v114H255.76V801.65Z"/>
  </g>
  <g id="Layer_2" data-name="Layer 2">
    <path class="cls-1" d="M975.75,801.47q74.25,0,138-38.8,61.32-38.8,103-118.79l104.42,45Q1264.59,801,1175.5,856.55q-91,58-199.75,58A375.41,375.41,0,0,1,829.66,885.3,383.45,383.45,0,0,1,629.43,685.07a381.16,381.16,0,0,1,0-292.67A384.74,384.74,0,0,1,829.66,192.66a375.42,375.42,0,0,1,146.09-29.22q108.74,0,199.75,58,89.09,55.57,145.61,167.65l-104.42,45q-41.67-80.46-103-117.83-63.71-39.75-138-39.76-108.74,0-185.85,76.64Q713.25,430.25,713.26,539T789.9,724.83Q867,801.46,975.75,801.47Z"/>
  </g>
  <g id="Layer_3" data-name="Layer 3">
    <path class="cls-1" d="M1769.19,385.31,1587.65,644.45l189.68,270.63H1640.82L1519.15,741.2,1397.49,915.08H1261l190.16-270.63L1301.72,430.24l104.39-44.93,113,161.9,113.53-161.9Z"/>
  </g>
</svg>
