<?xml version="1.0" encoding="UTF-8" standalone="no"?>
<!DOCTYPE svg PUBLIC "-//W3C//DTD SVG 1.1//EN" "http://www.w3.org/Graphics/SVG/1.1/DTD/svg11.dtd">
<svg width="100%" height="100%" viewBox="0 0 2315 1058" version="1.1" xmlns="http://www.w3.org/2000/svg" xmlns:xlink="http://www.w3.org/1999/xlink" xml:space="preserve" xmlns:serif="http://www.serif.com/" style="fill-rule:evenodd;clip-rule:evenodd;stroke-linejoin:round;stroke-miterlimit:2;">
    <g transform="matrix(0.64,0,0,0.64,0,0)">
        <g id="Layer-2" serif:id="Layer 2">
        </g>
        <g id="Artboard1" transform="matrix(1,0,0,1,-685,-1696)">
            <rect x="685" y="1696" width="3616" height="1652" style="fill:none;"/>
            <g id="Layer-1" serif:id="Layer 1" transform="matrix(4.16667,0,0,4.16667,0,0)">
                <g transform="matrix(1,0,0,1,406.771,482.029)">
                    <path d="M0,259.109L0,318.519L-233.397,318.519L-233.397,-59.41L0,-59.41L0,-0L-173.987,-0L-173.987,98.851L-33.699,98.851L-33.699,158.261L-173.987,158.261L-173.987,259.109L0,259.109Z" style="fill:rgb(55,177,214);fill-rule:nonzero;"/>
                </g>
                <g transform="matrix(1,0,0,1,593.898,467.456)">
                    <path d="M0,273.588C25.793,273.588 49.757,266.848 71.892,253.368C93.192,239.888 111.083,219.256 125.56,191.462L179.978,214.926C160.34,253.867 135.046,282.991 104.093,302.294C72.473,322.432 37.775,332.498 0,332.498C-26.46,332.498 -51.84,327.42 -76.135,317.272C-99.599,307.123 -120.318,293.058 -138.291,275.085C-156.264,257.112 -170.329,236.393 -180.478,212.93C-190.63,188.634 -195.704,163.254 -195.704,136.793C-195.704,110.334 -190.63,84.873 -180.478,60.409C-170.329,37.112 -156.264,16.476 -138.291,-1.497C-120.318,-19.47 -99.599,-33.531 -76.135,-43.684C-51.84,-53.832 -26.46,-58.91 0,-58.91C37.775,-58.91 72.473,-48.839 104.093,-28.706C135.046,-9.399 160.34,19.721 179.978,58.662L125.56,82.126C111.083,54.169 93.192,33.7 71.892,20.72C49.757,6.908 25.793,0.001 0,0.001C-37.779,0.001 -70.062,13.316 -96.854,39.941C-123.481,66.735 -136.793,99.02 -136.793,136.793C-136.793,174.572 -123.481,206.856 -96.854,233.648C-70.062,260.275 -37.779,273.588 0,273.588" style="fill:rgb(55,177,214);fill-rule:nonzero;"/>
                </g>
                <g transform="matrix(1,0,0,1,1021.48,800.25)">
                    <path d="M0,-276.083L-94.606,-141.037L4.244,0L-66.898,0L-130.303,-90.613L-193.707,0L-264.85,0L-165.749,-141.037L-243.615,-252.668L-189.214,-276.083L-130.303,-191.711L-71.143,-276.083L0,-276.083Z" style="fill:rgb(55,177,214);fill-rule:nonzero;"/>
                </g>
            </g>
        </g>
    </g>
</svg>
